# xmcd
#
# Track frame offsets:
#	150
#	24620
#	45082
#	72230
#	95635
#	113560
#	137495
#	156842
#	178290
#	200325
#	225405
#	249797
#
# Disc length: 3659 seconds
#
# Revision: 2
# Processed by: cddbd v1.5.2PL0 Copyright (c) Steve Scherf et al.
# Submitted via: EZCDAudioConverter 8.0.2.1
#
DISCID=910e490c
DTITLE=李玟 - Di Da Di 暗示
DYEAR=1999
DGENRE=
TTITLE0=过完冬季
TTITLE1=Di Da Di
TTITLE2=暗示
TTITLE3=美丽笨女人
TTITLE4=女人心
TTITLE5=真想见到你
TTITLE6=Perfect In Every Way
TTITLE7=都是流行歌曲的错
TTITLE8=讯息
TTITLE9=再暗示
TTITLE10=不拍没人来爱我
TTITLE11=宠物
EXTD=
EXTT0=
EXTT1=
EXTT2=
EXTT3=
EXTT4=
EXTT5=
EXTT6=
EXTT7=
EXTT8=
EXTT9=
EXTT10=
EXTT11=
PLAYORDER=
